PathFileType	4	(X/Y/Z)	F:\PHD\Matlab_Output_Files\Ahelaos\HopStudy\HopDistance\Right\HDR_3\HDR_3.trc
DataRate	CameraRate	NumFrames	NumMarkers	Units	OrigDataRate	OrigDataStartFrame	OrigNumFrames
100.000000	100.000000	9	46	m	100.000000	73	195
Frame#	Times			LFHD			RFHD			LBHD			RBHD			C7			T10			CLAV			STRN			RBAK			LSHO			LELB			LWRA			LWRB			LFIN			RSHO			RELB			RWRA			RWRB			RFIN			LASI			RASI			SACR			RPSI			LPSI			LTHI			LTHI2			LTHI3			LKNE			LTIB			LTIB2			LTIB3			LANK			LHEE			LTOE			LLatFoot			RTHI			RTHI2			RTHI3			RKNE			RTIB			RTIB2			RTIB3			RANK			RHEE			RTOE			RLatFoot
		X1	Y1	Z1	X2	Y2	Z2	X3	Y3	Z3	X4	Y4	Z4	X5	Y5	Z5	X6	Y6	Z6	X7	Y7	Z7	X8	Y8	Z8	X9	Y9	Z9	X10	Y10	Z10	X11	Y11	Z11	X12	Y12	Z12	X13	Y13	Z13	X14	Y14	Z14	X15	Y15	Z15	X16	Y16	Z16	X17	Y17	Z17	X18	Y18	Z18	X19	Y19	Z19	X20	Y20	Z20	X21	Y21	Z21	X22	Y22	Z22	X23	Y23	Z23	X24	Y24	Z24	X25	Y25	Z25	X26	Y26	Z26	X27	Y27	Z27	X28	Y28	Z28	X29	Y29	Z29	X30	Y30	Z30	X31	Y31	Z31	X32	Y32	Z32	X33	Y33	Z33	X34	Y34	Z34	X35	Y35	Z35	X36	Y36	Z36	X37	Y37	Z37	X38	Y38	Z38	X39	Y39	Z39	X40	Y40	Z40	X41	Y41	Z41	X42	Y42	Z42	X43	Y43	Z43	X44	Y44	Z44	X45	Y45	Z45	X46	Y46	Z46

73	0.73	-0.77214	1.6034	0.21921	-0.7739	1.5947	0.3344	-0.92536	1.7043	0.21754	-0.9133	1.6783	0.34726	-1.0721	1.5781	0.27719	-1.2445	1.2982	0.25839	-0.98173	1.4483	0.26773	-1.0188	1.2871	0.24344	-1.1544	1.4894	0.40139	-1.0475	1.5616	0.10993	-1.2065	1.2458	-0.021426	-1.1055	0.95676	-0.0096042	-1.1685	0.94599	-0.056949	-1.1057	0.89731	-0.067064	-1.005	1.4997	0.42706	-1.2094	1.2041	0.54603	-1.1547	0.91565	0.47802	-1.2181	0.90227	0.51939	-1.1617	0.84736	0.52751	-1.1139	1.0581	0.11197	-1.0763	1.0442	0.34277	-1.2836	1.1057	0.24327	-1.2629	1.1196	0.30161	-1.2761	1.1315	0.19312	-1.1562	0.74463	0.040411	-1.0762	0.80405	0.021077	-1.0766	0.71468	0.015403	-1.0319	0.56599	0.025792	-1.2104	0.57915	0.04979	-1.1998	0.5144	0.051678	-1.2544	0.53632	0.063335	-1.4185	0.51876	0.12635	-1.4234	0.55651	0.16367	-1.4433	0.36424	0.14394	-1.4976	0.43576	0.12362	-1.1082	0.7539	0.38492	-1.2042	0.72825	0.3769	-1.1351	0.67766	0.37111	-1.1331	0.5138	0.32818	-1.162	0.31296	0.31605	-1.2261	0.3194	0.32999	-1.2044	0.27022	0.31462	-1.2455	0.10476	0.26862	-1.2955	0.10799	0.21787	-1.1206	0.050259	0.26063	-1.2009	0.027761	0.2866
74	0.74	-0.76782	1.6015	0.22104	-0.7694	1.5932	0.33441	-0.92104	1.7026	0.21742	-0.90894	1.6764	0.34734	-1.0673	1.5767	0.27711	-1.2419	1.2984	0.25894	-0.97791	1.4461	0.26741	-1.0169	1.2856	0.24309	-1.1499	1.4888	0.40141	-1.0419	1.5603	0.10991	-1.2007	1.2442	-0.020717	-1.1023	0.95409	-0.0078238	-1.1652	0.94425	-0.05488	-1.1026	0.89538	-0.065718	-0.99998	1.4974	0.42676	-1.209	1.2049	0.54576	-1.1564	0.9172	0.47537	-1.2199	0.90329	0.51645	-1.1633	0.84902	0.52471	-1.1125	1.0578	0.11237	-1.0757	1.0432	0.34296	-1.2829	1.1057	0.24385	-1.2626	1.1197	0.30243	-1.2754	1.1316	0.19387	-1.1562	0.74434	0.040759	-1.0763	0.8038	0.021225	-1.0767	0.71433	0.015711	-1.032	0.56578	0.025906	-1.2104	0.57928	0.050033	-1.1999	0.51447	0.051817	-1.2545	0.53646	0.063477	-1.4185	0.51903	0.12664	-1.4235	0.55705	0.16381	-1.4437	0.36465	0.14409	-1.4984	0.43657	0.12411	-1.1067	0.75328	0.38474	-1.2025	0.72713	0.37667	-1.1334	0.67668	0.3707	-1.1307	0.51333	0.32763	-1.1607	0.31253	0.31557	-1.2247	0.31941	0.32959	-1.2034	0.26994	0.3143	-1.2453	0.10513	0.26881	-1.2953	0.108	0.21784	-1.1207	0.050288	0.26056	-1.2009	0.027723	0.28656
75	0.75	-0.76225	1.5998	0.22138	-0.76453	1.5916	0.33461	-0.91683	1.7003	0.21745	-0.90445	1.6744	0.34725	-1.0623	1.5752	0.27708	-1.2396	1.2984	0.25928	-0.97393	1.444	0.26733	-1.0145	1.2834	0.24328	-1.1451	1.4883	0.40173	-1.0364	1.5587	0.11007	-1.1948	1.2421	-0.020053	-1.0988	0.95155	-0.0058335	-1.1616	0.94194	-0.053076	-1.0994	0.89329	-0.064179	-0.99511	1.4952	0.42665	-1.2088	1.2055	0.54513	-1.1582	0.91833	0.47288	-1.2217	0.90428	0.51384	-1.165	0.85021	0.52207	-1.1113	1.0576	0.1129	-1.0752	1.0423	0.34298	-1.282	1.1056	0.24466	-1.2616	1.1194	0.30296	-1.2743	1.1316	0.19447	-1.1562	0.74423	0.040982	-1.0765	0.80342	0.021323	-1.0768	0.71404	0.015918	-1.032	0.56557	0.025913	-1.2106	0.57925	0.050227	-1.2001	0.5145	0.052048	-1.2546	0.53658	0.063635	-1.4186	0.51927	0.12687	-1.4236	0.5574	0.16407	-1.4441	0.36498	0.1445	-1.499	0.43704	0.12444	-1.1051	0.75244	0.38456	-1.2009	0.72624	0.37662	-1.1313	0.67632	0.37102	-1.1282	0.51276	0.32725	-1.1592	0.31221	0.31546	-1.2234	0.31944	0.32923	-1.2025	0.26948	0.31378	-1.2452	0.10489	0.26867	-1.295	0.108	0.21783	-1.1207	0.050306	0.26056	-1.2009	0.027634	0.28664
76	0.76	-0.75731	1.5976	0.22125	-0.75955	1.5893	0.33444	-0.9118	1.6977	0.21701	-0.89963	1.6717	0.34721	-1.057	1.5734	0.27711	-1.2369	1.2985	0.25966	-0.96973	1.4418	0.2677	-1.0124	1.2814	0.24311	-1.1402	1.4872	0.40163	-1.0303	1.557	0.10995	-1.1885	1.2394	-0.019211	-1.0951	0.94848	-0.0038065	-1.1577	0.93944	-0.051502	-1.0958	0.89076	-0.062394	-0.98746	1.4945	0.42689	-1.208	1.2058	0.5443	-1.16	0.91911	0.47039	-1.2234	0.90498	0.51148	-1.1667	0.85107	0.51964	-1.1111	1.0573	0.11304	-1.0747	1.0413	0.34296	-1.2813	1.1054	0.24526	-1.2609	1.1192	0.30366	-1.2735	1.1315	0.19505	-1.1562	0.744	0.041041	-1.0762	0.80314	0.02156	-1.0773	0.71372	0.016663	-1.032	0.56533	0.025953	-1.2107	0.57904	0.050356	-1.2003	0.51441	0.052243	-1.2548	0.53654	0.0638	-1.4187	0.5194	0.12715	-1.4237	0.55766	0.16437	-1.4445	0.36516	0.14492	-1.4992	0.43719	0.12484	-1.1035	0.75172	0.38433	-1.1991	0.72513	0.37669	-1.1295	0.67531	0.37077	-1.1256	0.51201	0.32687	-1.1578	0.31206	0.31542	-1.222	0.31942	0.32903	-1.2012	0.26926	0.31361	-1.2451	0.10522	0.26887	-1.2948	0.10825	0.21783	-1.1209	0.050361	0.26062	-1.2009	0.02768	0.28675
77	0.77	-0.75212	1.5953	0.22116	-0.75431	1.587	0.3343	-0.90698	1.695	0.21769	-0.89445	1.6691	0.34745	-1.0515	1.5713	0.27711	-1.2342	1.2985	0.26011	-0.96529	1.4389	0.26788	-1.0096	1.2788	0.24344	-1.1353	1.4861	0.40168	-1.0241	1.5549	0.10998	-1.1828	1.237	-0.018047	-1.0911	0.94543	-0.0014144	-1.1542	0.93685	-0.04893	-1.0919	0.88833	-0.060308	-0.98223	1.4916	0.42751	-1.2074	1.2059	0.54329	-1.1618	0.91903	0.46786	-1.2249	0.9054	0.5093	-1.1686	0.85103	0.51708	-1.1109	1.0564	0.11323	-1.0743	1.0402	0.34286	-1.2805	1.105	0.24606	-1.26	1.1188	0.30437	-1.2726	1.1315	0.19599	-1.1563	0.74369	0.041196	-1.0764	0.80276	0.021382	-1.077	0.71332	0.016282	-1.0323	0.56489	0.026002	-1.211	0.579	0.050669	-1.2005	0.51418	0.052478	-1.2547	0.53652	0.064085	-1.4189	0.51978	0.12758	-1.4237	0.55781	0.16474	-1.4447	0.36531	0.1454	-1.4991	0.43732	0.12512	-1.1011	0.75114	0.38492	-1.197	0.72401	0.37669	-1.1277	0.67352	0.37011	-1.1226	0.51143	0.32661	-1.1561	0.31147	0.31502	-1.2202	0.31918	0.32862	-1.1999	0.2692	0.31345	-1.245	0.10503	0.26881	-1.2946	0.10811	0.21792	-1.121	0.050366	0.26076	-1.201	0.027601	0.28691
78	0.78	-0.74666	1.5927	0.22164	-0.7487	1.5842	0.33443	-0.90236	1.6922	0.21819	-0.8892	1.666	0.34766	-1.0457	1.5688	0.27711	-1.2315	1.2985	0.26036	-0.96077	1.4358	0.26805	-1.0073	1.2764	0.24351	-1.1302	1.485	0.4018	-1.0179	1.5518	0.11044	-1.1769	1.2343	-0.017343	-1.087	0.94177	0.00092051	-1.1496	0.93345	-0.046996	-1.0877	0.88547	-0.058418	-0.97702	1.4889	0.42751	-1.2065	1.2058	0.54205	-1.1632	0.9191	0.46607	-1.2264	0.90559	0.50741	-1.1706	0.85049	0.51472	-1.1103	1.0554	0.11349	-1.0741	1.039	0.3428	-1.2798	1.1046	0.24653	-1.2594	1.1183	0.30487	-1.272	1.1314	0.19648	-1.1564	0.74332	0.041364	-1.0764	0.80238	0.021395	-1.0771	0.713	0.016374	-1.0324	0.56421	0.025895	-1.2107	0.57813	0.050531	-1.2007	0.51384	0.052745	-1.2547	0.53585	0.064474	-1.419	0.51985	0.12798	-1.4237	0.55792	0.16521	-1.4449	0.36533	0.14577	-1.4993	0.43745	0.1257	-1.0989	0.75012	0.38529	-1.1951	0.7224	0.37636	-1.1243	0.67403	0.37146	-1.1195	0.51036	0.32603	-1.1544	0.31074	0.31462	-1.2182	0.31943	0.32831	-1.1984	0.26914	0.31322	-1.2448	0.10508	0.26893	-1.2944	0.10825	0.21809	-1.1211	0.050247	0.26076	-1.201	0.027467	0.28711
79	0.79	-0.74168	1.59	0.22185	-0.74313	1.5811	0.33445	-0.89735	1.6888	0.21876	-0.88362	1.6625	0.34814	-1.0397	1.5661	0.27709	-1.2286	1.2982	0.26045	-0.95602	1.4324	0.26843	-1.0042	1.273	0.24382	-1.125	1.4835	0.40187	-1.0111	1.549	0.11052	-1.1703	1.2312	-0.016637	-1.0826	0.93828	0.0032395	-1.1445	0.93055	-0.044052	-1.0832	0.88266	-0.056321	-0.97188	1.4855	0.42772	-1.2054	1.2052	0.54067	-1.1643	0.91847	0.46447	-1.2277	0.90541	0.50567	-1.1729	0.84919	0.51225	-1.1112	1.0539	0.11343	-1.0739	1.0375	0.34286	-1.2791	1.1041	0.24702	-1.2587	1.1176	0.30561	-1.2708	1.131	0.19685	-1.1568	0.74283	0.041295	-1.076	0.80169	0.021622	-1.0772	0.7124	0.01636	-1.0325	0.56299	0.025991	-1.2106	0.57752	0.050622	-1.2008	0.51318	0.053036	-1.2551	0.53549	0.064753	-1.419	0.51988	0.1285	-1.4236	0.55776	0.16574	-1.4451	0.36547	0.14608	-1.4994	0.43747	0.12626	-1.0968	0.74877	0.38517	-1.1929	0.72023	0.37612	-1.1216	0.67287	0.37147	-1.1156	0.50931	0.32534	-1.1521	0.31022	0.31435	-1.2159	0.31951	0.32796	-1.1966	0.26873	0.31297	-1.2444	0.10507	0.26892	-1.2939	0.10839	0.21817	-1.1211	0.050154	0.26068	-1.2009	0.027485	0.28711
80	0.8	-0.73628	1.5865	0.22153	-0.73731	1.5776	0.33462	-0.89186	1.685	0.21941	-0.878	1.6587	0.3486	-1.0337	1.5629	0.27721	-1.2257	1.2976	0.26052	-0.95107	1.4286	0.26882	-1.0021	1.2697	0.2439	-1.1196	1.4818	0.40199	-1.0042	1.5454	0.11072	-1.1642	1.2278	-0.015617	-1.0779	0.93474	0.0059684	-1.1396	0.92682	-0.0421	-1.0783	0.87964	-0.053811	-0.96692	1.4821	0.42775	-1.2041	1.2042	0.53918	-1.1655	0.91678	0.46278	-1.2291	0.90476	0.50383	-1.1751	0.84748	0.51026	-1.1107	1.0524	0.11365	-1.0738	1.0357	0.34295	-1.2784	1.1032	0.24773	-1.2577	1.1167	0.30607	-1.2697	1.1305	0.19704	-1.1569	0.74248	0.0413	-1.0761	0.80069	0.021785	-1.0774	0.71178	0.016375	-1.0325	0.56228	0.025927	-1.2107	0.57782	0.050768	-1.2007	0.51257	0.053333	-1.2551	0.5349	0.065068	-1.4192	0.51984	0.12926	-1.4234	0.55734	0.16642	-1.4453	0.3649	0.14651	-1.4999	0.43786	0.12757	-1.0946	0.74737	0.38527	-1.1905	0.71809	0.37619	-1.1194	0.67042	0.37045	-1.1114	0.50805	0.32471	-1.1498	0.30917	0.31373	-1.2136	0.31936	0.32725	-1.1947	0.26841	0.31242	-1.244	0.10521	0.26892	-1.2934	0.10858	0.21811	-1.121	0.050056	0.2605	-1.2008	0.027403	0.28709
81	0.81	-0.73058	1.5823	0.2219	-0.73134	1.5736	0.33478	-0.88637	1.6805	0.21954	-0.87234	1.6543	0.34895	-1.0275	1.5594	0.27736	-1.2226	1.2967	0.26057	-0.94605	1.4245	0.26928	-0.99842	1.2661	0.24428	-1.1142	1.4795	0.40185	-0.9969	1.5415	0.11097	-1.158	1.2244	-0.014833	-1.073	0.93081	0.0085638	-1.1344	0.92303	-0.039264	-1.0731	0.87643	-0.051476	-0.96192	1.4775	0.42842	-1.2025	1.2028	0.53751	-1.1662	0.91516	0.46191	-1.2302	0.90384	0.50231	-1.1775	0.84519	0.50846	-1.1099	1.0513	0.11395	-1.0737	1.0337	0.34319	-1.2779	1.1021	0.24827	-1.2569	1.1156	0.30623	-1.269	1.1299	0.19773	-1.1568	0.74025	0.042491	-1.0761	0.79962	0.022078	-1.0778	0.71064	0.014988	-1.0324	0.56136	0.025663	-1.2109	0.5768	0.051298	-1.2006	0.51175	0.053608	-1.2551	0.53421	0.065427	-1.4191	0.5192	0.12971	-1.4231	0.55667	0.16693	-1.4456	0.36433	0.14701	-1.4999	0.43686	0.12819	-1.0925	0.74544	0.38528	-1.1866	0.71522	0.37514	-1.1162	0.66904	0.37078	-1.1071	0.5065	0.32407	-1.1473	0.30853	0.31319	-1.2109	0.31928	0.32661	-1.1926	0.2682	0.31209	-1.2436	0.10512	0.2688	-1.2927	0.10884	0.2181	-1.121	0.049824	0.26027	-1.2009	0.027248	0.28694
